<svg width="204" height="124" viewBox="0 0 204 124" fill="none" xmlns="http://www.w3.org/2000/svg">
<g clip-path="url(#clip0_1183_10260)">
<path d="M20.774 123.663H18.3745L19.4728 116.596H11.0365L9.92502 123.663H7.51562L10.0448 107.617H12.4442L11.3893 114.352H19.8255L20.8904 107.617H23.2898L20.774 123.663Z" fill="#B11F16"/>
<path d="M34.0648 107.379C38.3012 107.379 41.1233 110.346 41.1233 114.503C41.1233 119.94 36.7338 123.899 31.479 123.899C27.3025 123.899 24.4805 121.039 24.4805 116.916C24.4805 111.492 28.8933 107.379 34.0648 107.379ZM31.8418 121.55C35.7021 121.55 38.5841 118.727 38.5841 114.755C38.5841 111.811 36.7338 109.731 33.7054 109.731C29.9482 109.731 27.0596 112.709 27.0596 116.644C27.0596 119.587 28.8966 121.546 31.8451 121.546L31.8418 121.55Z" fill="#B11F16"/>
<path d="M51.3561 118.357L46.6638 111.421L44.7336 123.663H42.3242L44.8534 107.617H46.9001L52.0383 115.323L59.576 107.617H61.7292L59.2133 123.663H56.8039L58.6775 111.727L51.8886 118.357H51.3628H51.3561Z" fill="#B11F16"/>
<path d="M74.4027 123.663H62.8516L65.3808 107.617H76.6856L76.3329 109.875H67.4274L66.7385 114.294H74.426L74.0732 116.553H66.3858L65.6237 121.408H74.7621L74.3994 123.667L74.4027 123.663Z" fill="#B11F16"/>
<path d="M111.085 108.253L110.513 110.605C109.541 109.99 107.903 109.638 106.429 109.638C104.183 109.638 102.662 110.478 102.662 112.272C102.662 113.63 103.774 113.878 104.852 114.221L107.018 114.92C108.962 115.535 110.203 116.516 110.203 118.442C110.203 121.513 107.431 123.903 103.777 123.903C101.67 123.903 99.3308 123.429 98.3125 122.79L98.8749 120.509C99.9265 121.063 102.116 121.621 103.86 121.621C105.897 121.621 107.557 120.677 107.557 118.879C107.557 117.874 106.962 117.39 105.697 117.01L103.311 116.288C101.707 115.79 100.023 114.86 100.023 112.753C100.023 109.668 102.492 107.376 106.496 107.376C108.602 107.376 109.96 107.766 111.095 108.25L111.085 108.253Z" fill="#B11F16"/>
<path d="M123.551 123.664H112L114.529 107.618H125.834L125.481 109.876H116.576L115.887 114.295H123.575L123.222 116.553H115.534L114.772 121.409H123.911L123.548 123.667L123.551 123.664Z" fill="#B11F16"/>
<path d="M133.54 118.748H129.244L128.472 123.664H126.062L128.592 107.618H135.637C138.236 107.618 140.293 109.097 140.293 112.239C140.293 115.381 138.442 117.461 136.116 118.348L139.544 123.654H136.595L133.54 118.751V118.748ZM130.638 109.873L129.597 116.513H133.797C135.857 116.513 137.74 115.058 137.74 112.672C137.74 110.817 136.489 109.873 134.838 109.873H130.638Z" fill="#B11F16"/>
<path d="M154.196 107.618H156.771L148.205 123.664H145.337L141.812 107.618H144.259L147.127 121.02L154.196 107.618Z" fill="#B11F16"/>
<path d="M158.308 123.664H155.898L158.428 107.618H160.827L158.311 123.664H158.308Z" fill="#B11F16"/>
<path d="M174.95 122.837C174.038 123.227 172.504 123.889 169.779 123.889C165.016 123.889 162.031 121.03 162.031 116.812C162.031 111.328 166.454 107.383 172.328 107.383C174.411 107.383 176.201 107.961 177.02 108.398L176.411 110.737C175.639 110.323 174.035 109.745 171.952 109.745C167.785 109.745 164.65 112.558 164.65 116.456C164.65 119.48 166.873 121.55 170.408 121.55C172.245 121.55 173.978 121.019 174.97 120.485L174.947 122.837H174.95Z" fill="#B11F16"/>
<path d="M188.707 123.664H177.156L179.685 107.618H190.99L190.638 109.876H181.732L181.043 114.295H188.731L188.378 116.554H180.69L179.928 121.409H189.067L188.704 123.668L188.707 123.664Z" fill="#B11F16"/>
<path d="M167.953 62.2383L166.602 70.8578H175.84L177.191 62.2383H167.953Z" fill="#B11F16"/>
<path d="M0 101.972L4.57586 72.79H18.0705C27.5417 72.79 32.5202 77.5619 30.9993 87.2533C29.4685 97.0087 23.1555 101.972 13.4913 101.972H0ZM12.4397 80.3309L10.2166 94.4917H14.2168C18.1537 94.4917 20.9591 91.6757 21.6546 87.25C22.4034 82.4782 20.1438 80.3309 16.4398 80.3309H12.4397Z" fill="#006D9E"/>
<path d="M39.0776 91.4203L29.2969 72.79H39.9195L44.8082 83.5333L53.2411 72.79H63.5443L48.1893 91.4203L46.5354 101.972H37.4236L39.0776 91.4203Z" fill="#006D9E"/>
<path d="M69.231 101.972H60.3555L64.9313 72.79H72.3159L82.4094 87.2735L84.6824 72.79H93.5812L89.0053 101.972H82.1099L71.474 87.6801L69.2343 101.972H69.231Z" fill="#006D9E"/>
<path d="M136.893 72.7905L144.767 83.7925L156.072 72.7905H163.417L158.841 101.972H149.922L152.311 86.7363L143.493 95.181H142.557L136.264 86.7127L133.872 101.969H124.996L129.572 72.7871H136.893V72.7905Z" fill="#006D9E"/>
<path d="M170.957 101.972H161.719L166.295 72.79H175.533L170.957 101.972Z" fill="#006D9E"/>
<path d="M195.436 72.3604C198.331 72.3604 201.037 72.7468 204.085 74.0809L202.158 82.0115C200.354 81.0236 197.868 80.3145 194.89 80.3145C190.334 80.3145 185.981 82.1392 185.179 87.2572C184.367 92.4356 188.554 94.3712 193.003 94.3712C195.239 94.3712 197.729 93.6823 200.581 92.0727L200.82 99.9159C196.617 102.151 193.299 102.409 189.658 102.409C180.653 102.409 174.307 96.6059 175.731 87.3882C177.309 77.3304 185.978 72.4108 195.436 72.3671V72.3604Z" fill="#006D9E"/>
<path d="M117.121 72.79H106.073L78.9336 123.664H88.8041L102.908 97.3313H112.509L113.61 101.972H123.464L117.121 72.79ZM105.91 90.3886L110.239 81.386L111.723 90.3886H105.913H105.91Z" fill="#006D9E"/>
<path d="M68.0725 33.8396C70.9178 32.4013 74.3156 32.4013 77.1609 33.8396L78.735 34.6326C80.6053 35.5769 82.6553 36.0474 84.7053 36.0474C85.1778 36.0474 85.6504 36.0205 86.123 35.9701C86.6654 34.7469 87.2511 33.5271 87.8635 32.324C85.3442 33.1507 82.5588 32.9659 80.1627 31.7561L78.5886 30.963C74.8514 29.0745 70.3887 29.0745 66.6515 30.963L65.8661 31.3596C62.5282 33.0431 58.5447 33.0431 55.2068 31.3596C54.4181 30.9597 53.463 31.2856 53.0703 32.0787C52.6776 32.8718 52.9971 33.8396 53.7825 34.2361C58.0122 36.3733 63.064 36.37 67.2937 34.2361L68.0791 33.8396H68.0725Z" fill="#86888A"/>
<path d="M113.713 27.5762C115.5 28.423 117.441 28.8531 119.384 28.8531C121.434 28.8531 123.484 28.3827 125.354 27.4384L126.14 27.0419C126.925 26.6453 127.244 25.6775 126.852 24.8845C126.459 24.0914 125.504 23.7688 124.715 24.1653L123.93 24.5619C121.085 25.9968 117.687 25.9968 114.841 24.5619L113.267 23.7688C112.475 23.3689 111.65 23.0598 110.805 22.8279C111.763 24.3166 112.745 25.9128 113.713 27.5795V27.5762Z" fill="#86888A"/>
<path d="M77.9464 27.038L78.7317 27.4346C80.602 28.3789 82.6487 28.8493 84.702 28.8493C86.7553 28.8493 88.6589 28.4057 90.4759 27.5253C91.4376 25.8686 92.4127 24.2825 93.3612 22.8005C92.4893 23.0324 91.6373 23.3483 90.8187 23.7616L89.2446 24.5547C86.3992 25.9896 83.0014 25.9929 80.1561 24.5547L79.3707 24.1582C78.582 23.7616 77.6269 24.0842 77.2342 24.8773C76.8415 25.6737 77.161 26.6382 77.9464 27.0347V27.038Z" fill="#86888A"/>
<path d="M84.5334 39.9082C83.0292 39.8847 81.5283 39.5284 80.1572 38.8362L78.5832 38.0431C74.8459 36.1546 70.3832 36.1546 66.646 38.0431L65.8606 38.4397C65.0752 38.8362 64.7557 39.804 65.1484 40.5971C65.5411 41.3901 66.4996 41.7127 67.2849 41.3162L68.0703 40.9197C70.9157 39.4848 74.3135 39.4848 77.1588 40.9197L78.7329 41.7127C80.2471 42.4755 81.8778 42.9258 83.5317 43.0703C83.8146 42.032 84.1507 40.9734 84.5334 39.9048V39.9082Z" fill="#86888A"/>
<path d="M151.023 32.0787C150.63 31.2857 149.675 30.9597 148.887 31.3596C145.549 33.0432 141.565 33.0432 138.227 31.3596L137.442 30.9631C133.705 29.0745 129.242 29.0745 125.505 30.9631L123.931 31.7561C121.561 32.9524 118.812 33.1473 116.316 32.3543C116.922 33.5506 117.501 34.7637 118.034 35.9768C118.483 36.0239 118.935 36.0507 119.385 36.0507C121.435 36.0507 123.485 35.5803 125.355 34.636L126.929 33.8429C129.774 32.4047 133.172 32.408 136.014 33.8429L136.8 34.2395C141.029 36.3767 146.081 36.3767 150.311 34.2395C151.096 33.8429 151.416 32.8751 151.023 32.0821V32.0787Z" fill="#86888A"/>
<path d="M138.228 38.4397L137.442 38.0431C133.705 36.1546 129.242 36.1546 125.505 38.0431L123.931 38.8362C122.573 39.5217 121.089 39.8746 119.602 39.9082C119.978 40.9734 120.31 42.0286 120.587 43.0703C122.231 42.9225 123.855 42.4722 125.359 41.7127L126.933 40.9197C129.778 39.4848 133.176 39.4848 136.021 40.9197L136.807 41.3162C137.595 41.7161 138.551 41.3901 138.943 40.5971C139.336 39.8006 139.016 38.8362 138.231 38.4397H138.228Z" fill="#86888A"/>
<path d="M129.12 15.5252V2.97062H122.201V11.5599L102.044 0L63.2109 22.2696L66.6254 28.3419L102.044 8.03144L137.463 28.3419L140.877 22.2696L129.12 15.5252Z" fill="#B11F16"/>
<path d="M102.075 25.9826C102.96 27.3099 103.895 28.7616 104.827 30.294C109.706 38.3053 112.501 45.258 112.501 49.3678C112.501 55.1881 107.812 59.9263 102.045 59.9263C96.2777 59.9263 91.5887 55.1915 91.5887 49.3678C91.5887 47.4893 92.3308 41.8942 99.1963 30.5225C100.168 28.9129 101.146 27.3805 102.072 25.9859L102.075 25.9826ZM102.045 14.0127C102.045 14.0127 84.6367 36.158 84.6367 49.3678C84.6367 59.0761 92.4306 66.9463 102.045 66.9463C111.659 66.9463 119.453 59.0761 119.453 49.3678C119.453 35.8387 102.045 14.0127 102.045 14.0127Z" fill="#006D9E"/>
<path d="M82.7349 51.8744H74.9676V44.8545H68.0156V58.8977H85.0312C83.8531 56.7672 83.0577 54.3981 82.7349 51.8778V51.8744Z" fill="#B11F16"/>
<path d="M129.12 44.8549V51.8749H121.316C120.993 54.3952 120.198 56.7677 119.02 58.8948H136.075V44.8516H129.123L129.12 44.8549Z" fill="#B11F16"/>
</g>
<defs>
<clipPath id="clip0_1183_10260">
<rect width="204" height="124" fill="white"/>
</clipPath>
</defs>
</svg>
